<svg width="272" height="272" viewBox="0 0 272 272" fill="none" xmlns="http://www.w3.org/2000/svg">
  
    <path d="M103.415 57.3407L91.0933 27.5839" stroke="#2F2E2D" stroke-miterlimit="10"/>
    <path d="M94.1993 79.5944C92.4704 75.4203 92.4705 70.7302 94.1996 66.5561C95.9286 62.382 99.245 59.0658 103.419 57.3369C107.593 55.608 112.283 55.6081 116.457 57.3371C120.632 59.0662 123.948 62.3826 125.677 66.5568" stroke="#2F2E2D" stroke-miterlimit="10"/>
    <path d="M57.3464 103.41L27.5896 91.0875" stroke="#2F2E2D" stroke-miterlimit="10"/>
    <path d="M66.5567 125.673C62.416 123.921 59.1357 120.604 57.4309 116.443C55.726 112.283 55.735 107.618 57.4558 103.464C59.1766 99.3102 62.4696 96.0052 66.617 94.2694C70.7644 92.5336 75.4299 92.5078 79.5963 94.1975" stroke="#2F2E2D" stroke-miterlimit="10"/>
    <path d="M57.3464 168.579L27.5896 180.901" stroke="#2F2E2D" stroke-miterlimit="10"/>
    <path d="M79.5944 177.801C75.4325 179.467 70.7816 179.425 66.6502 177.685C62.5187 175.945 59.2398 172.646 57.5244 168.504C55.8091 164.362 55.7955 159.711 57.4867 155.559C59.1779 151.407 62.4375 148.09 66.5587 146.325" stroke="#2F2E2D" stroke-miterlimit="10"/>
    <path d="M103.415 214.669L91.0933 244.405" stroke="#2F2E2D" stroke-miterlimit="10"/>
    <path d="M125.675 205.441C124.834 207.53 123.587 209.431 122.007 211.034C120.427 212.638 118.545 213.913 116.469 214.784C114.394 215.656 112.166 216.108 109.915 216.114C107.663 216.119 105.433 215.678 103.353 214.817C101.273 213.955 99.3849 212.69 97.797 211.094C96.209 209.498 94.9531 207.604 94.1019 205.519C93.2507 203.435 92.821 201.203 92.8378 198.952C92.8545 196.701 93.3173 194.475 94.1994 192.404" stroke="#2F2E2D" stroke-miterlimit="10"/>
    <path d="M180.907 244.405L168.585 214.669" stroke="#2F2E2D" stroke-miterlimit="10"/>
    <path d="M177.801 192.406C178.692 194.478 179.163 196.708 179.186 198.964C179.208 201.221 178.782 203.459 177.933 205.55C177.083 207.64 175.827 209.541 174.237 211.142C172.646 212.742 170.754 214.011 168.669 214.875C166.584 215.738 164.348 216.179 162.092 216.171C159.835 216.163 157.603 215.707 155.524 214.829C153.445 213.951 151.562 212.669 149.983 211.057C148.403 209.445 147.16 207.536 146.325 205.439" stroke="#2F2E2D" stroke-miterlimit="10"/>
    <path d="M244.412 180.901L214.656 168.579" stroke="#2F2E2D" stroke-miterlimit="10"/>
    <path d="M205.441 146.327C207.539 147.161 209.45 148.404 211.063 149.984C212.676 151.563 213.959 153.447 214.838 155.526C215.716 157.606 216.173 159.839 216.181 162.096C216.189 164.354 215.748 166.59 214.884 168.676C214.02 170.761 212.75 172.654 211.148 174.245C209.546 175.836 207.644 177.092 205.553 177.941C203.461 178.79 201.222 179.215 198.964 179.191C196.707 179.167 194.477 178.694 192.404 177.801" stroke="#2F2E2D" stroke-miterlimit="10"/>
    <path d="M244.412 91.0875L214.656 103.41" stroke="#2F2E2D" stroke-miterlimit="10"/>
    <path d="M192.415 94.1994C194.49 93.2989 196.722 92.8205 198.983 92.792C201.245 92.7635 203.489 93.1855 205.585 94.0333C207.682 94.8812 209.588 96.1379 211.194 97.7303C212.799 99.3227 214.072 101.219 214.937 103.308C215.802 105.397 216.243 107.638 216.233 109.899C216.224 112.161 215.764 114.397 214.881 116.479C213.997 118.561 212.709 120.446 211.089 122.024C209.47 123.603 207.553 124.843 205.449 125.673" stroke="#2F2E2D" stroke-miterlimit="10"/>
    <path d="M180.907 27.5839L168.585 57.3407" stroke="#2F2E2D" stroke-miterlimit="10"/>
    <path d="M146.329 66.5567C147.158 64.4521 148.398 62.5337 149.977 60.9135C151.556 59.2933 153.441 58.0036 155.523 57.1199C157.606 56.2362 159.843 55.776 162.105 55.7663C164.367 55.7565 166.608 56.1974 168.698 57.0631C170.788 57.9289 172.685 59.2022 174.277 60.8088C175.87 62.4153 177.126 64.3229 177.973 66.4203C178.821 68.5177 179.242 70.7628 179.212 73.0247C179.183 75.2866 178.703 77.5199 177.801 79.5944" stroke="#2F2E2D" stroke-miterlimit="10"/>
    <path d="M136.002 52.7487L136 93.285" stroke="#2F2E2D" stroke-miterlimit="10"/>
    <path d="M153.045 35.7134C153.045 40.2314 151.25 44.5644 148.055 47.7591C144.861 50.9538 140.528 52.7486 136.01 52.7486C131.492 52.7486 127.159 50.9538 123.964 47.7591C120.769 44.5644 118.974 40.2314 118.974 35.7134" stroke="#2F2E2D" stroke-miterlimit="10"/>
    <path d="M77.1339 77.1317L105.806 105.806" stroke="#2F2E2D" stroke-miterlimit="10"/>
    <path d="M77.1433 53.042C78.764 54.615 80.0557 56.4946 80.9432 58.5714C81.8308 60.6483 82.2965 62.8809 82.3133 65.1394C82.3301 67.3978 81.8976 69.6371 81.041 71.7269C80.1844 73.8167 78.9208 75.7153 77.3238 77.3122C75.7267 78.9092 73.828 80.1726 71.7381 81.029C69.6483 81.8855 67.409 82.3177 65.1505 82.3008C62.892 82.2838 60.6595 81.8179 58.5827 80.9301C56.506 80.0424 54.6265 78.7506 53.0536 77.1299" stroke="#2F2E2D" stroke-miterlimit="10"/>
    <path d="M52.7507 135.998L93.058 136" stroke="#2F2E2D" stroke-miterlimit="10"/>
    <path d="M35.7155 118.963C40.2335 118.963 44.5665 120.758 47.7612 123.952C50.9559 127.147 52.7507 131.48 52.7507 135.998C52.7507 140.516 50.9559 144.849 47.7612 148.044C44.5665 151.239 40.2335 153.033 35.7155 153.033" stroke="#2F2E2D" stroke-miterlimit="10"/>
    <path d="M77.132 194.864L105.685 166.315" stroke="#2F2E2D" stroke-miterlimit="10"/>
    <path d="M53.0422 194.864C56.2382 191.67 60.5724 189.876 65.0911 189.877C69.6099 189.878 73.9432 191.674 77.1377 194.87C80.3322 198.066 82.1262 202.4 82.1252 206.919C82.1241 211.438 80.328 215.771 77.132 218.965" stroke="#2F2E2D" stroke-miterlimit="10"/>
    <path d="M135.998 219.247L136 178.868" stroke="#2F2E2D" stroke-miterlimit="10"/>
    <path d="M118.963 236.283C118.963 231.765 120.758 227.432 123.953 224.237C127.147 221.042 131.48 219.247 135.998 219.247C140.516 219.247 144.849 221.042 148.044 224.237C151.239 227.432 153.034 231.765 153.034 236.283" stroke="#2F2E2D" stroke-miterlimit="10"/>
    <path d="M194.864 194.868L166.313 166.315" stroke="#2F2E2D" stroke-miterlimit="10"/>
    <path d="M194.864 218.965C193.283 217.383 192.028 215.505 191.172 213.438C190.316 211.372 189.876 209.156 189.876 206.919C189.876 204.682 190.317 202.467 191.173 200.4C192.029 198.333 193.284 196.455 194.866 194.874C196.448 193.292 198.326 192.037 200.393 191.181C202.46 190.325 204.675 189.885 206.913 189.885C209.15 189.885 211.365 190.326 213.432 191.182C215.498 192.039 217.376 193.294 218.958 194.876" stroke="#2F2E2D" stroke-miterlimit="10"/>
    <path d="M219.249 136.002L178.87 136" stroke="#2F2E2D" stroke-miterlimit="10"/>
    <path d="M236.285 153.039C231.767 153.039 227.434 151.244 224.239 148.049C221.044 144.855 219.25 140.522 219.25 136.004C219.25 131.486 221.044 127.153 224.239 123.958C227.434 120.763 231.767 118.969 236.285 118.969" stroke="#2F2E2D" stroke-miterlimit="10"/>
    <path d="M194.866 77.1355L166.313 105.685" stroke="#2F2E2D" stroke-miterlimit="10"/>
    <path d="M218.962 77.1355C217.387 78.7484 215.507 80.0327 213.432 80.9138C211.357 81.7949 209.128 82.2554 206.874 82.2687C204.619 82.2819 202.385 81.8475 200.3 80.9907C198.214 80.134 196.32 78.8719 194.726 77.2776C193.132 75.6832 191.871 73.7884 191.015 71.703C190.159 69.6175 189.725 67.3828 189.739 65.1285C189.753 62.8742 190.214 60.6451 191.096 58.5703C191.978 56.4956 193.262 54.6165 194.876 53.042" stroke="#2F2E2D" stroke-miterlimit="10"/>
    <path d="M261.939 137.681C262.843 68.163 207.22 11.0748 137.702 10.1711C68.1837 9.26738 11.0956 64.8902 10.1919 134.408C9.28816 203.926 64.911 261.014 134.429 261.918C203.947 262.822 261.035 207.199 261.939 137.681Z" stroke="#2F2E2D" stroke-width="2" stroke-miterlimit="10"/>
    <path d="M251.747 155.162C262.33 91.2359 219.087 30.8345 155.161 20.2516C91.2347 9.66873 30.8333 52.9119 20.2504 116.838C9.6675 180.764 52.9107 241.165 116.837 251.748C180.763 262.331 241.164 219.088 251.747 155.162Z" stroke="#2F2E2D" stroke-miterlimit="10"/>
    <path d="M144.112 186.422C171.96 181.942 190.903 155.734 186.422 127.886C181.942 100.038 155.734 81.0952 127.886 85.5756C100.038 90.0561 81.0953 116.263 85.5757 144.111C90.0562 171.959 116.264 190.903 144.112 186.422Z" stroke="#2F2E2D" stroke-miterlimit="10"/>
    <path d="M145.805 177.749C168.868 172.35 183.187 149.278 177.789 126.215C172.39 103.152 149.317 88.832 126.254 94.2307C103.191 99.6294 88.8714 122.702 94.2701 145.765C99.6689 168.828 122.742 183.148 145.805 177.749Z" stroke="#2F2E2D" stroke-width="2.00066" stroke-miterlimit="10"/>

  <g opacity="0.2">
    <path d="M136 46.9548C142.207 46.9548 147.239 41.9227 147.239 35.7153C147.239 29.5079 142.207 24.4758 136 24.4758C129.793 24.4758 124.76 29.5079 124.76 35.7153C124.76 41.9227 129.793 46.9548 136 46.9548Z" fill="#C4C0BD"/>
    <path d="M73.034 57.14C74.6045 58.712 75.6738 60.7144 76.1066 62.894C76.5393 65.0736 76.3162 67.3325 75.4654 69.3854C74.6145 71.4382 73.1742 73.1926 71.3264 74.427C69.4786 75.6613 67.3063 76.3201 65.0842 76.3201C62.862 76.3201 60.6898 75.6613 58.842 74.427C56.9942 73.1926 55.5538 71.4382 54.703 69.3854C53.8521 67.3325 53.629 65.0736 54.0617 62.894C54.4945 60.7144 55.5638 58.712 57.1344 57.14C58.178 56.0954 59.4173 55.2667 60.7814 54.7013C62.1454 54.1359 63.6076 53.845 65.0842 53.845C66.5608 53.845 68.0229 54.1359 69.387 54.7013C70.751 55.2667 71.9903 56.0954 73.034 57.14Z" fill="#C4C0BD"/>
    <path d="M35.7135 124.759C37.9364 124.758 40.1097 125.416 41.9584 126.651C43.8072 127.885 45.2483 129.64 46.0997 131.694C46.9511 133.747 47.1744 136.007 46.7415 138.187C46.3086 140.368 45.2388 142.371 43.6675 143.943C42.0961 145.515 40.0938 146.587 37.9137 147.021C35.7336 147.455 33.4736 147.233 31.4196 146.383C29.3656 145.533 27.6097 144.094 26.3741 142.246C25.1384 140.398 24.4785 138.225 24.4778 136.002C24.4773 133.021 25.6606 130.162 27.7676 128.054C29.8746 125.945 32.7327 124.76 35.7135 124.759Z" fill="#C4C0BD"/>
    <path d="M57.1401 198.964C58.7122 197.393 60.7149 196.323 62.895 195.89C65.075 195.457 67.3346 195.68 69.3879 196.531C71.4413 197.382 73.1963 198.822 74.431 200.67C75.6658 202.518 76.3248 204.691 76.3248 206.914C76.3248 209.137 75.6658 211.309 74.431 213.158C73.1963 215.006 71.4413 216.446 69.3879 217.297C67.3346 218.148 65.075 218.371 62.895 217.938C60.7149 217.505 58.7122 216.435 57.1401 214.864C56.0957 213.82 55.2672 212.581 54.702 211.217C54.1368 209.853 53.8458 208.39 53.8458 206.914C53.8458 205.437 54.1368 203.975 54.702 202.611C55.2672 201.247 56.0957 200.008 57.1401 198.964Z" fill="#C4C0BD"/>
    <path d="M124.76 236.285C124.76 234.062 125.418 231.888 126.653 230.039C127.887 228.191 129.642 226.749 131.696 225.898C133.749 225.047 136.009 224.824 138.19 225.257C140.37 225.69 142.373 226.76 143.945 228.331C145.518 229.903 146.589 231.905 147.023 234.086C147.457 236.266 147.235 238.526 146.385 240.58C145.535 242.634 144.094 244.39 142.246 245.625C140.398 246.86 138.225 247.52 136.002 247.52C133.021 247.521 130.163 246.337 128.054 244.23C125.946 242.123 124.762 239.265 124.76 236.285Z" fill="#C4C0BD"/>
    <path d="M198.964 214.86C197.393 213.288 196.323 211.285 195.89 209.105C195.457 206.925 195.68 204.665 196.531 202.612C197.381 200.559 198.822 198.804 200.67 197.569C202.518 196.334 204.691 195.675 206.914 195.675C209.137 195.675 211.309 196.334 213.158 197.569C215.006 198.804 216.446 200.559 217.297 202.612C218.148 204.665 218.371 206.925 217.938 209.105C217.505 211.285 216.435 213.288 214.864 214.86C213.82 215.904 212.581 216.733 211.217 217.298C209.853 217.863 208.39 218.154 206.914 218.154C205.437 218.154 203.975 217.863 202.611 217.298C201.247 216.733 200.008 215.904 198.964 214.86Z" fill="#C4C0BD"/>
    <path d="M236.285 147.239C234.062 147.24 231.888 146.582 230.039 145.347C228.191 144.113 226.75 142.358 225.898 140.304C225.047 138.251 224.824 135.991 225.257 133.81C225.69 131.63 226.76 129.627 228.331 128.055C229.903 126.482 231.905 125.411 234.086 124.977C236.266 124.543 238.526 124.765 240.58 125.615C242.634 126.465 244.39 127.906 245.625 129.754C246.86 131.602 247.52 133.775 247.52 135.998C247.521 138.979 246.337 141.837 244.23 143.946C242.123 146.054 239.265 147.238 236.285 147.239Z" fill="#C4C0BD"/>
    <path d="M214.862 73.0301C213.29 74.6013 211.287 75.6711 209.107 76.1043C206.927 76.5374 204.667 76.3145 202.614 75.4636C200.561 74.6127 198.806 73.1721 197.571 71.324C196.336 69.4758 195.677 67.303 195.677 65.0803C195.677 62.8576 196.336 60.6848 197.571 58.8366C198.806 56.9884 200.561 55.5479 202.614 54.697C204.667 53.8461 206.927 53.6232 209.107 54.0563C211.287 54.4895 213.29 55.5593 214.862 57.1305C215.906 58.1743 216.735 59.4136 217.3 60.7777C217.865 62.1417 218.156 63.6038 218.156 65.0803C218.156 66.5569 217.865 68.0189 217.3 69.3829C216.735 70.747 215.906 71.9863 214.862 73.0301Z" fill="#C4C0BD"/>
    <path d="M120.29 68.7032C121.141 70.7569 121.363 73.0168 120.93 75.1972C120.497 77.3775 119.426 79.3804 117.854 80.9524C116.283 82.5245 114.28 83.5951 112.1 84.0289C109.919 84.4627 107.659 84.2403 105.606 83.3897C103.552 82.5391 101.796 81.0986 100.561 79.2502C99.3261 77.4019 98.6668 75.2288 98.6667 73.0058C98.6667 70.7827 99.3259 68.6096 100.561 66.7613C101.796 64.9129 103.551 63.4722 105.605 62.6216C106.969 62.0565 108.43 61.7657 109.906 61.7655C111.382 61.7654 112.844 62.056 114.207 62.6207C115.571 63.1854 116.81 64.0133 117.853 65.0569C118.897 66.1005 119.725 67.3396 120.29 68.7032Z" fill="#C4C0BD"/>
    <path d="M77.3059 99.5295C79.3591 100.38 81.1139 101.821 82.3484 103.669C83.583 105.517 84.2418 107.69 84.2415 109.912C84.2413 112.135 83.5821 114.307 82.3472 116.155C81.1123 118.003 79.3572 119.443 77.3039 120.293C75.2505 121.144 72.9911 121.366 70.8113 120.933C68.6315 120.499 66.6293 119.429 65.0577 117.857C63.4862 116.286 62.416 114.283 61.9823 112.104C61.5487 109.924 61.7711 107.664 62.6216 105.611C63.1859 104.247 64.0135 103.008 65.0571 101.964C66.1006 100.92 67.3397 100.092 68.7034 99.5271C70.0672 98.9623 71.5289 98.6718 73.0049 98.6722C74.481 98.6726 75.9425 98.9639 77.3059 99.5295Z" fill="#C4C0BD"/>
    <path d="M68.7051 151.71C70.7588 150.859 73.0187 150.637 75.1991 151.07C77.3794 151.503 79.3823 152.574 80.9543 154.146C82.5264 155.717 83.597 157.72 84.0309 159.9C84.4647 162.081 84.2422 164.34 83.3916 166.394C82.541 168.448 81.1005 170.204 79.2521 171.439C77.4038 172.674 75.2307 173.333 73.0077 173.333C70.7847 173.333 68.6116 172.674 66.7632 171.439C64.9148 170.204 63.4742 168.449 62.6235 166.395C62.0582 165.031 61.7671 163.57 61.7668 162.094C61.7666 160.618 62.0571 159.156 62.6219 157.792C63.1867 156.429 64.0146 155.19 65.0584 154.146C66.1021 153.103 67.3413 152.275 68.7051 151.71Z" fill="#C4C0BD"/>
    <path d="M99.5217 194.694C100.372 192.64 101.812 190.885 103.661 189.649C105.509 188.414 107.682 187.755 109.905 187.754C112.127 187.754 114.301 188.413 116.149 189.647C117.998 190.882 119.438 192.637 120.29 194.691C121.141 196.744 121.364 199.004 120.93 201.184C120.497 203.365 119.427 205.368 117.855 206.94C116.284 208.512 114.281 209.583 112.101 210.017C109.921 210.451 107.661 210.229 105.607 209.378C104.243 208.814 103.004 207.986 101.96 206.943C100.916 205.899 100.087 204.66 99.5224 203.297C98.9573 201.933 98.6664 200.472 98.6663 198.996C98.6662 197.519 98.9568 196.058 99.5217 194.694Z" fill="#C4C0BD"/>
    <path d="M151.72 203.297C150.869 201.243 150.646 198.984 151.079 196.804C151.512 194.624 152.582 192.621 154.154 191.05C155.725 189.478 157.727 188.407 159.907 187.973C162.087 187.539 164.347 187.762 166.4 188.612C168.454 189.462 170.209 190.902 171.444 192.75C172.679 194.598 173.338 196.771 173.339 198.994C173.339 201.216 172.68 203.389 171.445 205.237C170.211 207.085 168.456 208.526 166.402 209.376C165.039 209.942 163.578 210.233 162.102 210.233C160.626 210.233 159.165 209.943 157.802 209.378C156.438 208.813 155.199 207.986 154.156 206.942C153.112 205.899 152.284 204.66 151.72 203.297Z" fill="#C4C0BD"/>
    <path d="M194.686 172.478C192.632 171.628 190.876 170.188 189.641 168.34C188.405 166.492 187.746 164.319 187.745 162.096C187.744 159.873 188.403 157.7 189.638 155.851C190.872 154.002 192.627 152.561 194.681 151.71C196.735 150.859 198.995 150.636 201.175 151.069C203.356 151.502 205.358 152.573 206.931 154.144C208.503 155.716 209.574 157.718 210.008 159.899C210.442 162.079 210.219 164.339 209.369 166.393C208.805 167.757 207.977 168.996 206.934 170.04C205.89 171.084 204.652 171.912 203.288 172.477C201.925 173.042 200.463 173.333 198.987 173.333C197.512 173.333 196.05 173.043 194.686 172.478Z" fill="#C4C0BD"/>
    <path d="M203.299 120.288C201.246 121.139 198.986 121.362 196.806 120.929C194.626 120.496 192.624 119.426 191.051 117.855C189.479 116.284 188.409 114.282 187.974 112.102C187.54 109.922 187.762 107.663 188.612 105.609C189.462 103.556 190.902 101.8 192.75 100.565C194.597 99.3295 196.77 98.6698 198.992 98.6692C201.215 98.6686 203.388 99.327 205.236 100.561C207.085 101.796 208.525 103.55 209.376 105.603C209.942 106.967 210.233 108.428 210.234 109.904C210.234 111.38 209.944 112.841 209.38 114.205C208.815 115.568 207.988 116.807 206.944 117.851C205.901 118.895 204.662 119.723 203.299 120.288Z" fill="#C4C0BD"/>
    <path d="M172.476 77.3022C171.626 79.3557 170.186 81.1108 168.338 82.3457C166.49 83.5806 164.317 84.2399 162.095 84.2401C159.872 84.2403 157.699 83.5814 155.851 82.3468C154.003 81.1122 152.563 79.3573 151.712 77.304C150.861 75.2507 150.639 72.9913 151.072 70.8114C151.505 68.6315 152.575 66.629 154.147 65.0573C155.718 63.4855 157.72 62.415 159.9 61.9811C162.08 61.5472 164.339 61.7694 166.393 62.6197C167.757 63.1839 168.996 64.0113 170.04 65.0546C171.084 66.098 171.912 67.3368 172.477 68.7004C173.042 70.0639 173.333 71.5254 173.333 73.0014C173.332 74.4773 173.041 75.9388 172.476 77.3022Z" fill="#C4C0BD"/>
  </g>
</svg>
