<svg width="87" height="129" viewBox="0 0 87 129" fill="none" xmlns="http://www.w3.org/2000/svg">
  <path d="M86 1V78.5866C58.1507 85.8045 28.8493 85.8045 1 78.5866V1H86Z" fill="#EAE5E1" stroke="#2F2E2D" stroke-width="1" stroke-miterlimit="10"/>
  <path d="M76 1V119.838C54.7035 125.387 32.2965 125.387 11 119.838V1H76Z" fill="#EAE5E1" stroke="#2F2E2D" stroke-width="1" stroke-miterlimit="10"/>

  <path d="M67.8797 123.616C67.8797 117.15 65.3112 110.949 60.7391 106.377C56.167 101.804 49.9659 99.2358 43.4999 99.2358C37.034 99.2358 30.8329 101.804 26.2608 106.377C21.6887 110.949 19.1201 117.15 19.1201 123.616" stroke="#2F2E2D" stroke-width="0.5" stroke-miterlimit="10"/>
  <path d="M60.0405 123.615C60.0405 119.229 58.2978 115.021 55.1958 111.919C52.0939 108.818 47.8867 107.075 43.4999 107.075C39.113 107.075 34.9058 108.818 31.8038 111.919C28.7019 115.021 26.9592 119.229 26.9592 123.615" stroke="#2F2E2D" stroke-width="0.5" stroke-miterlimit="10"/>
  <path d="M81 122.334C56.5604 129.889 30.4396 129.889 6 122.334L8.54855 114C31.3341 121.039 55.6851 121.039 78.4707 114L81 122.334Z" fill="#EAE5E1" stroke="#2F2E2D" stroke-width="1.8" stroke-miterlimit="10"/>
  
  <path d="M43.5098 1L43.5002 119.783" stroke="#2F2E2D" stroke-width="1.8" stroke-miterlimit="10"/>

  <path d="M27.0132 62.5598V1" stroke="#2F2E2D" stroke-width="0.5" stroke-miterlimit="10"/>
  <path d="M59.9983 62.5598V1" stroke="#2F2E2D" stroke-width="0.5" stroke-miterlimit="10"/>
  <path d="M10.5222 55.5312C20.4776 61.5362 31.8834 64.7098 43.5096 64.7098C55.1359 64.7098 66.5416 61.5362 76.497 55.5312" stroke="#2F2E2D" stroke-width="0.5" stroke-miterlimit="10"/>
</svg>
