<svg width="1148" height="1148" viewBox="0 0 1148 1148" fill="none" xmlns="http://www.w3.org/2000/svg">
  <g opacity="0.2">
    <path d="M533.718 573.998C533.718 566.031 536.081 558.243 540.507 551.618C544.933 544.994 551.224 539.831 558.585 536.782C565.946 533.733 574.045 532.935 581.859 534.489C589.673 536.044 596.851 539.88 602.484 545.514C608.118 551.148 611.955 558.325 613.509 566.139C615.063 573.953 614.265 582.053 611.217 589.413C608.168 596.774 603.005 603.065 596.38 607.491C589.756 611.918 581.968 614.28 574.001 614.28C563.317 614.28 553.071 610.036 545.517 602.482C537.962 594.927 533.718 584.681 533.718 573.998Z" stroke="#2F2E2D" stroke-miterlimit="10"/>
    <path d="M515.328 573.998C515.328 562.394 518.769 551.05 525.216 541.401C531.663 531.753 540.827 524.233 551.548 519.792C562.269 515.351 574.066 514.189 585.447 516.453C596.828 518.717 607.282 524.305 615.488 532.51C623.693 540.716 629.281 551.17 631.545 562.552C633.809 573.933 632.647 585.73 628.207 596.451C623.766 607.172 616.246 616.335 606.597 622.782C596.948 629.229 585.605 632.67 574.001 632.67C558.44 632.67 543.516 626.489 532.513 615.485C521.51 604.482 515.328 589.559 515.328 573.998Z" stroke="#2F2E2D" stroke-miterlimit="10"/>
    <path d="M574.001 669.45C626.716 669.45 669.451 626.716 669.451 574C669.451 521.285 626.716 478.55 574.001 478.55C521.285 478.55 478.551 521.285 478.551 574C478.551 626.716 521.285 669.45 574.001 669.45Z" stroke="#2F2E2D" stroke-miterlimit="10"/>
    <path d="M574.001 724.618C657.184 724.618 724.618 657.184 724.618 574C724.618 490.817 657.184 423.383 574.001 423.383C490.817 423.383 423.383 490.817 423.383 574C423.383 657.184 490.817 724.618 574.001 724.618Z" stroke="#2F2E2D" stroke-miterlimit="10"/>
    <path d="M574.001 798.174C697.808 798.174 798.174 697.808 798.174 574C798.174 450.193 697.808 349.827 574.001 349.827C450.193 349.827 349.827 450.193 349.827 574C349.827 697.808 450.193 798.174 574.001 798.174Z" stroke="#2F2E2D" stroke-miterlimit="10"/>
    <path d="M574 890.117C748.587 890.117 890.117 748.587 890.117 574C890.117 399.414 748.587 257.883 574 257.883C399.414 257.883 257.884 399.414 257.884 574C257.884 748.587 399.414 890.117 574 890.117Z" stroke="#2F2E2D" stroke-miterlimit="10"/>
    <path d="M574 1000.45C809.523 1000.45 1000.45 809.522 1000.45 574C1000.45 338.478 809.523 147.55 574 147.55C338.478 147.55 147.55 338.478 147.55 574C147.55 809.522 338.478 1000.45 574 1000.45Z" stroke="#2F2E2D" stroke-miterlimit="10"/>
    <path d="M574 1147.56C890.77 1147.56 1147.56 890.77 1147.56 574C1147.56 257.231 890.77 0.437866 574 0.437866C257.231 0.437866 0.437866 257.231 0.437866 574C0.437866 890.77 257.231 1147.56 574 1147.56Z" stroke="#2F2E2D" stroke-miterlimit="10"/>
    <path d="M614.284 574L1147.56 574" stroke="#2F2E2D" stroke-miterlimit="10"/>
    <path d="M613.672 567.004L1138.85 474.403" stroke="#2F2E2D" stroke-miterlimit="10"/>
    <path d="M611.854 560.221L1112.97 377.83" stroke="#2F2E2D" stroke-miterlimit="10"/>
    <path d="M608.887 553.857L1070.72 287.219" stroke="#2F2E2D" stroke-miterlimit="10"/>
    <path d="M604.858 548.106L1013.38 205.321" stroke="#2F2E2D" stroke-miterlimit="10"/>
    <path d="M599.893 543.141L942.679 134.625" stroke="#2F2E2D" stroke-miterlimit="10"/>
    <path d="M594.142 539.113L860.781 77.28" stroke="#2F2E2D" stroke-miterlimit="10"/>
    <path d="M587.777 536.146L770.17 35.0273" stroke="#2F2E2D" stroke-miterlimit="10"/>
    <path d="M580.995 534.328L673.598 9.15112" stroke="#2F2E2D" stroke-miterlimit="10"/>
    <path d="M574 533.716V0.437866" stroke="#2F2E2D" stroke-miterlimit="10"/>
    <path d="M567.005 534.328L474.402 9.15198" stroke="#2F2E2D" stroke-miterlimit="10"/>
    <path d="M560.221 536.146L377.83 35.0282" stroke="#2F2E2D" stroke-miterlimit="10"/>
    <path d="M553.858 539.113L287.219 77.2809" stroke="#2F2E2D" stroke-miterlimit="10"/>
    <path d="M548.105 543.141L205.321 134.627" stroke="#2F2E2D" stroke-miterlimit="10"/>
    <path d="M543.141 548.107L134.626 205.322" stroke="#2F2E2D" stroke-miterlimit="10"/>
    <path d="M539.112 553.858L77.2809 287.22" stroke="#2F2E2D" stroke-miterlimit="10"/>
    <path d="M536.145 560.222L35.0282 377.831" stroke="#2F2E2D" stroke-miterlimit="10"/>
    <path d="M534.328 567.005L9.15204 474.404" stroke="#2F2E2D" stroke-miterlimit="10"/>
    <path d="M533.717 574.002L0.437866 574.001" stroke="#2F2E2D" stroke-miterlimit="10"/>
    <path d="M534.329 580.997L9.15118 673.599" stroke="#2F2E2D" stroke-miterlimit="10"/>
    <path d="M536.146 587.78L35.0273 770.17" stroke="#2F2E2D" stroke-miterlimit="10"/>
    <path d="M539.114 594.144L77.2801 860.782" stroke="#2F2E2D" stroke-miterlimit="10"/>
    <path d="M543.142 599.896L134.626 942.681" stroke="#2F2E2D" stroke-miterlimit="10"/>
    <path d="M548.107 604.861L205.321 1013.38" stroke="#2F2E2D" stroke-miterlimit="10"/>
    <path d="M553.859 608.889L287.22 1070.72" stroke="#2F2E2D" stroke-miterlimit="10"/>
    <path d="M560.223 611.855L377.83 1112.97" stroke="#2F2E2D" stroke-miterlimit="10"/>
    <path d="M567.005 613.673L474.402 1138.85" stroke="#2F2E2D" stroke-miterlimit="10"/>
    <path d="M574.001 614.286V1147.56" stroke="#2F2E2D" stroke-miterlimit="10"/>
    <path d="M580.997 613.673L673.599 1138.85" stroke="#2F2E2D" stroke-miterlimit="10"/>
    <path d="M587.779 611.855L770.17 1112.97" stroke="#2F2E2D" stroke-miterlimit="10"/>
    <path d="M594.143 608.889L860.782 1070.72" stroke="#2F2E2D" stroke-miterlimit="10"/>
    <path d="M599.895 604.86L942.679 1013.37" stroke="#2F2E2D" stroke-miterlimit="10"/>
    <path d="M604.86 599.895L1013.37 942.68" stroke="#2F2E2D" stroke-miterlimit="10"/>
    <path d="M608.889 594.143L1070.72 860.781" stroke="#2F2E2D" stroke-miterlimit="10"/>
    <path d="M611.855 587.779L1112.97 770.17" stroke="#2F2E2D" stroke-miterlimit="10"/>
    <path d="M613.673 580.996L1138.85 673.598" stroke="#2F2E2D" stroke-miterlimit="10"/>
  </g>
</svg>
