<svg width="258" height="71" viewBox="0 0 258 71" fill="none" xmlns="http://www.w3.org/2000/svg">
  <path d="M3 58H70.3359C71.7362 58.0003 73.1229 57.716 74.4167 57.1634C75.7106 56.6109 76.8862 55.8008 77.8764 54.7795C78.8667 53.7582 79.6523 52.5457 80.1882 51.2113C80.7241 49.8768 81 48.4465 81 47.0021C81.0003 45.5574 80.7246 44.1267 80.1888 42.7919C79.653 41.4571 78.8675 40.2442 77.8773 39.2225C76.887 38.2009 75.7113 37.3905 74.4173 36.8375C73.1234 36.2846 71.7365 36 70.3359 36H13.6641C10.8358 36 8.12336 34.8411 6.12345 32.7782C4.12354 30.7153 3 27.9174 3 25C2.99974 23.5554 3.2754 22.1249 3.81123 20.7902C4.34705 19.4555 5.13256 18.2428 6.12287 17.2213C7.11317 16.1998 8.28887 15.3895 9.58281 14.8368C10.8768 14.2841 12.2636 13.9997 13.6641 14H81" stroke="#EAE5E1" stroke-opacity="0.5" stroke-width="6" stroke-miterlimit="10"/>
  <path d="M255 58H187.664C184.836 58 182.124 56.8414 180.124 54.7789C178.124 52.7165 177.001 49.9191 177 47.0021C177 45.5574 177.275 44.1267 177.811 42.7919C178.347 41.4571 179.132 40.2442 180.123 39.2225C181.113 38.2009 182.289 37.3905 183.583 36.8375C184.876 36.2846 186.263 36 187.664 36H244.334C245.735 36.0003 247.122 35.716 248.416 35.1633C249.71 34.6106 250.885 33.8004 251.876 32.7789C252.866 31.7574 253.652 30.5448 254.188 29.21C254.724 27.8753 255 26.4448 255 25C255 23.5553 254.724 22.1248 254.188 20.7901C253.652 19.4553 252.866 18.2426 251.876 17.2211C250.885 16.1997 249.71 15.3894 248.416 14.8367C247.122 14.2841 245.735 13.9997 244.334 14H177" stroke="#EAE5E1" stroke-opacity="0.5" stroke-width="6" stroke-miterlimit="10"/>
  <path d="M129 67.7963C146.673 67.7963 161.006 53.4694 161.014 35.7963C161.021 18.1232 146.701 3.79626 129.028 3.79626C111.354 3.79626 97.0214 18.1232 97.0138 35.7963C97.0062 53.4694 111.327 67.7963 129 67.7963Z" stroke="#EAE5E1" stroke-opacity="0.5" stroke-width="6" stroke-miterlimit="10"/>
  <path d="M3 58H70.3359C71.7362 58.0003 73.1229 57.716 74.4167 57.1634C75.7106 56.6109 76.8862 55.8008 77.8764 54.7795C78.8667 53.7582 79.6523 52.5457 80.1882 51.2113C80.7241 49.8768 81 48.4465 81 47.0021C81.0003 45.5574 80.7246 44.1267 80.1888 42.7919C79.653 41.4571 78.8675 40.2442 77.8773 39.2225C76.887 38.2009 75.7113 37.3905 74.4173 36.8375C73.1234 36.2846 71.7365 36 70.3359 36H13.6641C10.8358 36 8.12336 34.8411 6.12345 32.7782C4.12354 30.7153 3 27.9174 3 25C2.99974 23.5554 3.2754 22.1249 3.81123 20.7902C4.34705 19.4555 5.13256 18.2428 6.12287 17.2213C7.11317 16.1998 8.28887 15.3895 9.58281 14.8368C10.8768 14.2841 12.2636 13.9997 13.6641 14H81" stroke="#2F2E2D" stroke-width="2" stroke-miterlimit="10"/>
  <path d="M255 58H187.664C184.836 58 182.124 56.8414 180.124 54.7789C178.124 52.7165 177.001 49.9191 177 47.0021C177 45.5574 177.275 44.1267 177.811 42.7919C178.347 41.4571 179.132 40.2442 180.123 39.2225C181.113 38.2009 182.289 37.3905 183.583 36.8375C184.876 36.2846 186.263 36 187.664 36H244.334C245.735 36.0003 247.122 35.716 248.416 35.1633C249.71 34.6106 250.885 33.8004 251.876 32.7789C252.866 31.7574 253.652 30.5448 254.188 29.21C254.724 27.8753 255 26.4448 255 25C255 23.5553 254.724 22.1248 254.188 20.7901C253.652 19.4553 252.866 18.2426 251.876 17.2211C250.885 16.1997 249.71 15.3894 248.416 14.8367C247.122 14.2841 245.735 13.9997 244.334 14H177" stroke="#2F2E2D" stroke-width="2" stroke-miterlimit="10"/>
  <path d="M129 67.7963C146.673 67.7963 161.006 53.4694 161.014 35.7963C161.021 18.1232 146.701 3.79626 129.028 3.79626C111.354 3.79626 97.0214 18.1232 97.0138 35.7963C97.0062 53.4694 111.327 67.7963 129 67.7963Z" stroke="#2F2E2D" stroke-width="2" stroke-miterlimit="10"/>
</svg>
