<svg width="24" height="24" viewBox="0 0 24 24" fill="none" xmlns="http://www.w3.org/2000/svg">
  <symbol id="pawn-base" width="24" height="24" viewBox="0 0 24 24">
    <path d="M24 11.9919C24.0016 14.3655 23.2993 16.6862 21.9818 18.6605C20.6644 20.6349 18.7911 22.1742 16.5987 23.0838C14.4064 23.9934 11.9936 24.2324 9.66536 23.7707C7.33717 23.3089 5.19821 22.1671 3.51902 20.4896C1.83982 18.812 0.695801 16.6743 0.231666 14.3465C-0.232468 12.0188 0.0041275 9.60571 0.911521 7.41245C1.81891 5.2192 3.35635 3.34428 5.32938 2.02486C7.30241 0.705438 9.62241 0.000800018 11.996 1.71041e-07C15.1777 -0.000536601 18.2294 1.26235 20.4804 3.51104C22.7314 5.75972 23.9973 8.81018 24 11.9919Z"/>
  </symbol>

  <symbol id="pawn-point" width="24" height="24" viewBox="0 0 24 24">
    <path d="M11.9432 10.2198C12.2941 10.2194 12.6373 10.3231 12.9293 10.5178C13.2213 10.7125 13.449 10.9894 13.5836 11.3135C13.7182 11.6377 13.7536 11.9944 13.6854 12.3387C13.6171 12.6829 13.4484 12.9993 13.2003 13.2476C12.9523 13.4959 12.6362 13.665 12.292 13.7337C11.9478 13.8023 11.591 13.7672 11.2668 13.633C10.9425 13.4988 10.6653 13.2714 10.4703 12.9797C10.2752 12.6879 10.1711 12.3448 10.1711 11.9939C10.1711 11.5237 10.3578 11.0727 10.69 10.7401C11.0223 10.4075 11.473 10.2203 11.9432 10.2198Z" fill="#EAE5E1"/>
  </symbol>

  <symbol id="pawn-frame" width="24" height="24" viewBox="0 0 24 24">
    <path d="M11.9433 21.5895C10.0454 21.5899 8.18998 21.0275 6.61173 19.9734C5.03349 18.9192 3.80328 17.4208 3.07671 15.6675C2.35013 13.9141 2.15982 11.9847 2.52984 10.1232C2.89985 8.26175 3.81359 6.55181 5.15547 5.20964C6.49735 3.86748 8.20711 2.95337 10.0685 2.58296C11.9299 2.21255 13.8594 2.40247 15.6129 3.12867C17.3663 3.85488 18.8651 5.08475 19.9195 6.66277C20.974 8.24079 21.5368 10.0961 21.5368 11.994C21.5368 14.5386 20.5261 16.9789 18.7271 18.7784C16.928 20.5778 14.4878 21.589 11.9433 21.5895Z" stroke="#EAE5E1" stroke-width="0.5" stroke-miterlimit="10"/>
  </symbol>

  <symbol id="pawn-line-sm" width="24" height="24" viewBox="0 0 24 24">
    <path d="M15.7908 11.9999C15.7888 12.7612 15.5611 13.5048 15.1365 14.1367C14.7119 14.7685 14.1094 15.2603 13.4053 15.5498C12.7012 15.8393 11.9271 15.9135 11.1808 15.763C10.4346 15.6125 9.74967 15.2442 9.21278 14.7044C8.67588 14.1647 8.31109 13.4779 8.16453 12.7308C8.01797 11.9838 8.09623 11.21 8.38941 10.5075C8.68258 9.8049 9.17751 9.20506 9.8116 8.78377C10.4457 8.36249 11.1905 8.1387 11.9518 8.1407C12.4576 8.14069 12.9585 8.24064 13.4256 8.43483C13.8927 8.62902 14.3168 8.91363 14.6735 9.27226C15.0303 9.63089 15.3126 10.0565 15.5044 10.5246C15.6961 10.9927 15.7934 11.4941 15.7908 11.9999Z" stroke="#EAE5E1" stroke-width="1" stroke-miterlimit="10"/>
  </symbol>

  <symbol id="pawn-line-lg" width="24" height="24" viewBox="0 0 24 24">
    <path d="M18.9345 9.11476C19.5037 10.4989 19.6498 12.0207 19.3541 13.4878C19.0585 14.9549 18.3344 16.3014 17.2735 17.357C16.2126 18.4126 14.8626 19.1299 13.394 19.4182C11.9254 19.7065 10.4044 19.5528 9.02313 18.9767C7.64189 18.4005 6.46251 17.4277 5.63416 16.1812C4.80581 14.9348 4.36567 13.4707 4.36941 11.9741C4.37315 10.4775 4.82061 9.01559 5.65518 7.7733C6.48975 6.53101 7.67396 5.56414 9.05806 4.99487C9.97668 4.61359 10.9616 4.41776 11.9562 4.41864C12.9508 4.41953 13.9355 4.61708 14.8534 4.99999C15.7713 5.38291 16.6045 5.94358 17.3049 6.64976C18.0053 7.35593 18.5591 8.1937 18.9345 9.11476Z" stroke="#EAE5E1" stroke-width="1" stroke-miterlimit="10"/>
  </symbol>

  <symbol id="pawn-0" width="24" height="24" viewBox="0 0 24 24">
    <use href="#pawn-base"/>
    <use href="#pawn-frame"/>
  </symbol>

  <symbol id="pawn-1" width="24" height="24" viewBox="0 0 24 24">
    <use href="#pawn-base"/>
    <use href="#pawn-frame"/>
    <path d="M11.9414 4.42291V8.14071" stroke="#EAE5E1" stroke-width="1" stroke-miterlimit="10"/>    
    <use href="#pawn-line-sm"/>
    <use href="#pawn-point"/>
  </symbol>

   <symbol id="pawn-2" width="24" height="24" viewBox="0 0 24 24">
    <use href="#pawn-base"/>
    <use href="#pawn-frame"/>
    <path d="M8.09255 12.002H4.37476" stroke="#EAE5E1" stroke-width="1" stroke-miterlimit="10"/>
    <path d="M19.4541 12.002H15.7363" stroke="#EAE5E1" stroke-width="1" stroke-miterlimit="10"/>
    <use href="#pawn-line-lg"/>
    <use href="#pawn-point"/>
  </symbol>

  <symbol id="pawn-3" width="24" height="24" viewBox="0 0 24 24">
    <use href="#pawn-base"/>
    <use href="#pawn-frame"/>
    <path d="M11.9414 4.42291V8.14071" stroke="#EAE5E1" stroke-width="1" stroke-miterlimit="10"/>
    <path d="M5.38696 15.7824L8.60569 13.9235" stroke="#EAE5E1" stroke-width="1" stroke-miterlimit="10"/>
    <path d="M18.5022 15.7783L15.2834 13.9194" stroke="#EAE5E1" stroke-width="1" stroke-miterlimit="10"/>
    <use href="#pawn-line-sm"/>
    <use href="#pawn-point"/>
  </symbol>

  <symbol id="pawn-4" width="24" height="24" viewBox="0 0 24 24">
    <use href="#pawn-base"/>
    <use href="#pawn-frame"/>
    <path d="M6.59155 6.64355L9.22027 9.27228" stroke="#EAE5E1" stroke-width="1" stroke-miterlimit="10"/>
    <path d="M6.59326 17.3484L9.22198 14.7197" stroke="#EAE5E1" stroke-width="1" stroke-miterlimit="10"/>
    <path d="M17.2999 17.3464L14.6711 14.7177" stroke="#EAE5E1" stroke-width="1" stroke-miterlimit="10"/>
    <path d="M17.2979 6.63751L14.6692 9.26623" stroke="#EAE5E1" stroke-width="1" stroke-miterlimit="10"/>
    <use href="#pawn-line-lg"/>
    <use href="#pawn-point"/>
  </symbol>

  <symbol id="pawn-5" width="24" height="24" viewBox="0 0 24 24">
    <use href="#pawn-base"/>
    <use href="#pawn-frame"/>
    <path d="M11.9412 4.42291V8.14071" stroke="#EAE5E1" stroke-width="1" stroke-miterlimit="10"/>
    <path d="M4.74219 9.65613L8.27814 10.8038" stroke="#EAE5E1" stroke-width="1" stroke-miterlimit="10"/>
    <path d="M7.49414 18.1182L9.68037 15.1116" stroke="#EAE5E1" stroke-width="1" stroke-miterlimit="10"/>
    <path d="M16.3927 18.1181L14.2085 15.1096" stroke="#EAE5E1" stroke-width="1" stroke-miterlimit="10"/>
    <path d="M19.1421 9.65411L15.6062 10.8018" stroke="#EAE5E1" stroke-width="1" stroke-miterlimit="10"/>
    <use href="#pawn-line-sm"/>
    <use href="#pawn-point"/>
  </symbol>

  <symbol id="pawn-6" width="24" height="24" viewBox="0 0 24 24">
    <use href="#pawn-base"/>
    <use href="#pawn-frame"/>
    <path d="M8.15308 5.43933L10.012 8.66007" stroke="#EAE5E1" stroke-width="1" stroke-miterlimit="10"/>
    <path d="M4.36865 11.996H8.08645" stroke="#EAE5E1" stroke-width="1" stroke-miterlimit="10"/>
    <path d="M8.15527 18.5526L10.0142 15.3319" stroke="#EAE5E1" stroke-width="1" stroke-miterlimit="10"/>
    <path d="M15.7261 18.5506L13.8672 15.3319" stroke="#EAE5E1" stroke-width="1" stroke-miterlimit="10"/>
    <path d="M19.5108 11.994H15.793" stroke="#EAE5E1" stroke-width="1" stroke-miterlimit="10"/>
    <path d="M15.7239 5.43738L13.865 8.65812" stroke="#EAE5E1" stroke-width="1" stroke-miterlimit="10"/>
    <use href="#pawn-line-lg"/>
    <use href="#pawn-point"/>
  </symbol>

  <symbol id="pawn-7" width="24" height="24" viewBox="0 0 24 24">
    <use href="#pawn-base"/>
    <use href="#pawn-frame"/>
    <path d="M11.9417 4.42291V8.14071" stroke="#EAE5E1" stroke-width="1" stroke-miterlimit="10"/>
    <path d="M6.02319 7.27588L8.92873 9.59142" stroke="#EAE5E1" stroke-width="1" stroke-miterlimit="10"/>
    <path d="M4.56445 13.681L8.18728 12.8546" stroke="#EAE5E1" stroke-width="1" stroke-miterlimit="10"/>
    <path d="M8.66187 18.8153L10.2743 15.4693" stroke="#EAE5E1" stroke-width="1" stroke-miterlimit="10"/>
    <path d="M15.231 18.8132L13.6206 15.4672" stroke="#EAE5E1" stroke-width="1" stroke-miterlimit="10"/>
    <path d="M19.3244 13.677L15.7036 12.8486" stroke="#EAE5E1" stroke-width="1" stroke-miterlimit="10"/>
    <path d="M17.8618 7.27393L14.9563 9.58745" stroke="#EAE5E1" stroke-width="1" stroke-miterlimit="10"/>
    <use href="#pawn-line-sm"/>
    <use href="#pawn-point"/>
  </symbol>

  <symbol id="pawn-8" width="24" height="24" viewBox="0 0 24 24">
    <use href="#pawn-base"/>
    <use href="#pawn-frame"/>
    <path d="M9.04004 5.00092L10.4625 8.43583" stroke="#EAE5E1" stroke-width="1" stroke-miterlimit="10"/>
    <path d="M4.94409 9.09863L8.37901 10.5231" stroke="#EAE5E1" stroke-width="1" stroke-miterlimit="10"/>
    <path d="M4.94409 14.8954L8.38103 13.4709" stroke="#EAE5E1" stroke-width="1" stroke-miterlimit="10"/>
    <path d="M9.0437 18.9932L10.4682 15.5562" stroke="#EAE5E1" stroke-width="1" stroke-miterlimit="10"/>
    <path d="M14.839 18.9911L13.4165 15.5541" stroke="#EAE5E1" stroke-width="1" stroke-miterlimit="10"/>
    <path d="M18.9345 14.8894L15.4976 13.467" stroke="#EAE5E1" stroke-width="1" stroke-miterlimit="10"/>
    <path d="M18.9328 9.09454L15.4958 10.517" stroke="#EAE5E1" stroke-width="1" stroke-miterlimit="10"/>
    <path d="M14.8349 4.9989L13.4104 8.43786" stroke="#EAE5E1" stroke-width="1" stroke-miterlimit="10"/>
    <use href="#pawn-line-lg"/>
    <use href="#pawn-point"/>
  </symbol>
</svg>
